Release info:

General
Format                                   : Matroska
Format version                           : Version 2
File size                                : 380 MiB
Duration                                 : 40mn 31s
Overall bit rate                         : 1 312 Kbps
Movie name                               : Bhool 2012 Horror VCDRip Bengali Movie

Video
ID                                       : 1
Format                                   : AVC
Format/Info                              : Advanced Video Codec
Format profile                           : High@L5.1
Format settings, CABAC                   : Yes
Format settings, ReFrames                : 2 frames
Muxing mode                              : Header stripping
Codec ID                                 : V_MPEG4/ISO/AVC
Duration                                 : 40mn 31s
Bit rate                                 : 966 Kbps
Width                                    : 854 pixels
Height                                   : 480 pixels
Display aspect ratio                     : 16:9
Frame rate mode                          : Constant
Frame rate                               : 29.970 fps
Color space                              : YUV
Chroma subsampling                       : 4:2:0
Bit depth                                : 8 bits
Scan type                                : Progressive
Bits/(Pixel*Frame)                       : 0.079
Stream size                              : 280 MiB (74%)
Title                                    : Bhool 2012 Horror VCDRip Bengali Movie
Language                                 : Bengali
Default                                  : Yes
Forced                                   : No

Audio
ID                                       : 2
Format                                   : MPEG Audio
Format version                           : Version 1
Format profile                           : Layer 3
Muxing mode                              : Header stripping
Codec ID                                 : A_MPEG/L3
Codec ID/Hint                            : MP3
Duration                                 : 40mn 31s
Bit rate mode                            : Constant
Bit rate                                 : 320 Kbps
Channel(s)                               : 2 channels
Sampling rate                            : 48.0 KHz
Compression mode                         : Lossy
Stream size                              : 92.7 MiB (24%)
Title                                    : Bhool 2012 Horror VCDRip Bengali Movie
Language                                 : Bengali
Default                                  : Yes
Forced                                   : No



Source:
credit to original movie ripper DJMIX  (Thanks)

Movie Info:

Produced By :- BSTR Entertainment & 3R Films
Camera and Editing :- Satadru
Direction :- MADDY
Location Advisor :- SAYAN
Costume & Make-up :- BUBLA
Cinematography :- TINA and NEEL


CAST

Madhurima
Sayan
Tintin
Avirup

Basically movie ta 3 friends der niye toiri .. Tara ek chotto outing er pothe jabar somoy rastae tader gariti kharap hoye jae ebong rat katanor jonno tader ekti purono barite asroy nite hoy .



Screen Shot:
 
http://www.shotpix.com/images/97754157518575063216.png 
http://www.shotpix.com/images/49002500776366669309.png 
http://www.shotpix.com/images/68718767520696589541.png 
http://www.shotpix.com/images/96096130318478197154.png